<?xml version="1.0" encoding="UTF-8" standalone="no"?>
<svg
   version="1.1"
   width="150"
   height="100"
   id="svg2"
   sodipodi:docname="download.svg"
   inkscape:version="1.3 (0e150ed, 2023-07-21)"
   xmlns:inkscape="http://www.inkscape.org/namespaces/inkscape"
   xmlns:sodipodi="http://sodipodi.sourceforge.net/DTD/sodipodi-0.dtd"
   xmlns="http://www.w3.org/2000/svg"
   xmlns:svg="http://www.w3.org/2000/svg">
  <defs
     id="defs2" />
  <sodipodi:namedview
     id="namedview2"
     pagecolor="#ffffff"
     bordercolor="#000000"
     borderopacity="0.25"
     inkscape:showpageshadow="2"
     inkscape:pageopacity="0.0"
     inkscape:pagecheckerboard="0"
     inkscape:deskcolor="#d1d1d1"
     inkscape:zoom="1.18"
     inkscape:cx="200.42373"
     inkscape:cy="100"
     inkscape:window-width="1312"
     inkscape:window-height="449"
     inkscape:window-x="0"
     inkscape:window-y="25"
     inkscape:window-maximized="0"
     inkscape:current-layer="svg2" />
  <path
     fill="#"
     d="m 46.596695,53.542204 q 0,-0.98437 0.25293,-1.97558 0.25293,-0.99121 0.786133,-1.77735 0.533203,-0.78613 1.360351,-1.27832 0.827149,-0.49218 1.948243,-0.49218 0.478515,0 1.052734,0.11621 0.574219,0.11621 1.05957,0.36914 0.485352,0.25293 0.820313,0.65625 0.334961,0.40332 0.334961,0.99121 0,0.36914 -0.191407,0.49219 -0.191406,0.12304 -0.505859,0.12304 l -0.0957,-0.13672 q 0,0 -0.266602,-0.34863 -0.266601,-0.34863 -0.362304,-0.45117 -0.0957,-0.10254 -0.369141,-0.40332 -0.560547,-0.56055 -1.052734,-0.60156 h -0.109375 q -0.410157,0 -0.765625,0.24609 -0.396485,0.30078 -0.704102,0.84766 -0.307617,0.54687 -0.512695,1.16211 -0.205078,0.61523 -0.321289,1.24414 -0.116211,0.6289 -0.116211,1.03906 0,0.56055 0.129883,1.27832 0.129882,0.71777 0.4375,1.36035 0.307617,0.64258 0.779297,1.08008 0.471679,0.4375 1.20996,0.4375 0.669922,0 1.216797,-0.32813 0.546875,-0.32812 1.045899,-0.73144 0.499023,-0.40332 0.977539,-0.72461 0.478515,-0.32129 0.984375,-0.32129 0.21875,0 0.444336,0.0547 0.225586,0.0547 0.225586,0.28711 v 0.082 q -0.246094,0.64258 -0.833985,1.13476 -0.58789,0.49219 -1.319336,0.8545 -0.731445,0.3623 -1.517578,0.54004 -0.786133,0.17773 -1.401367,0.17773 -1.148437,0 -2.016601,-0.37598 -0.868165,-0.37597 -1.442383,-1.03222 -0.574219,-0.65625 -0.868164,-1.57911 -0.293946,-0.92285 -0.293946,-2.0166 z m 11.657598,0.53321 q 0,-0.7793 0.198242,-1.60645 0.198242,-0.82715 0.628906,-1.49023 0.430665,-0.66309 1.086915,-1.08008 0.65625,-0.41699 1.585937,-0.41699 0.697266,0 1.469727,0.23925 0.772461,0.23926 1.415039,0.6836 0.642578,0.44433 1.045898,1.08691 0.40332,0.64258 0.40332,1.43555 0,0.95703 -0.348632,1.81836 -0.348633,0.86133 -0.977539,1.53808 -0.628907,0.67676 -1.469727,1.06641 -0.84082,0.38965 -1.825195,0.38965 -0.806641,0 -1.408203,-0.29395 -0.601563,-0.29394 -1.004883,-0.78613 -0.403321,-0.49219 -0.601563,-1.16211 -0.198242,-0.66992 -0.198242,-1.42187 z m 2.009766,-0.0273 q 0,0.2461 0.0752,0.72461 0.07519,0.47852 0.225586,0.93653 0.150391,0.458 0.389648,0.79296 0.239258,0.33497 0.581055,0.30762 0.724609,-0.082 1.196289,-0.47168 0.47168,-0.38965 0.765625,-0.95019 0.293945,-0.56055 0.410156,-1.2168 0.116211,-0.65625 0.116211,-1.24414 0,-0.75195 -0.293945,-1.25781 -0.293945,-0.50586 -0.963867,-0.82032 0,0.0273 0.02734,0.0273 0.02734,0 0.02734,-0.0273 l -0.341797,-0.082 q -0.136718,-0.0547 -0.334961,-0.12304 -0.198242,-0.0684 -0.389648,-0.30079 -0.533203,0.19141 -0.827148,0.49219 -0.293946,0.30078 -0.444336,0.73145 -0.150391,0.43066 -0.184571,1.03222 -0.03418,0.60157 -0.03418,1.44922 z m 8.349004,4.6211 q 0,-0.39649 0.03418,-0.83399 0.03418,-0.4375 0.06152,-0.82031 l 0.08203,-2.05078 q 0.136719,-2.46094 0.334961,-4.83985 0.198242,-2.3789 0.334961,-4.8125 0.08203,-1.339839 0.123047,-2.631832 0.04102,-1.291992 0.123047,-2.631836 -0.05469,-0.109375 -0.05469,-0.15039 0,-0.191406 0.143555,-0.300781 0.143554,-0.109375 0.334961,-0.184571 0.191406,-0.07519 0.40332,-0.102539 0.211914,-0.02734 0.321289,-0.02734 h 0.314453 q 0.423828,0.05469 0.615235,0.266602 0.191406,0.211914 0.246093,0.505859 0.05469,0.293946 0.02734,0.628907 -0.02734,0.334961 -0.02734,0.62207 0,1.982422 -0.0957,4.040031 -0.0957,2.05762 -0.21875,4.12891 -0.123047,2.07129 -0.225586,4.14258 -0.102539,2.07129 -0.102539,4.09473 v 0.95703 q 0,0.64257 -0.362305,0.84765 -0.362304,0.20508 -1.004882,0.20508 -0.560547,0 -0.984375,-0.24609 -0.423828,-0.2461 -0.423828,-0.80664 z m 6.270878,-5.18164 q 0,-1.25782 0.293946,-2.46778 0.293945,-1.20996 0.499023,-2.41308 0.05469,-0.31446 0.430664,-0.38965 0.375977,-0.0752 0.635742,-0.0752 0.451172,0 0.72461,0.13672 0.109375,0.0547 0.205078,0.12305 0.0957,0.0684 0.0957,0.17773 0,1.17578 -0.280273,2.29688 -0.280274,1.12109 -0.280274,2.3789 0,0.42383 0.06152,0.79981 0.06152,0.37598 0.116211,0.74512 l 0.08203,0.39648 q 0,0.10938 0.01367,0.19141 0.01367,0.082 0.04102,0.1914 0,0.2461 -0.348632,0.33496 -0.348633,0.0889 -0.608399,0.0889 -0.396484,0 -0.731445,-0.15723 -0.334961,-0.15722 -0.526367,-0.54003 l -0.191407,-0.39649 q -0.164062,-0.31445 -0.164062,-0.7041 0,-0.38965 -0.06836,-0.71777 z m 0.875,-8.23047 v -0.25977 q 0,-0.642577 0.32129,-1.148436 0.321289,-0.50586 0.963867,-0.50586 0.08203,0 0.157226,0.01367 0.0752,0.01367 0.157227,0.01367 0.164062,0.02734 0.430664,0.129883 0.266601,0.102539 0.266601,0.321289 v 0.02734 q -0.05469,0.109375 -0.06836,0.225586 -0.01367,0.116211 -0.06836,0.198242 l 0.02734,-0.02734 q -0.164062,0.423828 -0.266601,0.683596 -0.102539,0.25977 -0.225586,0.41699 -0.123047,0.15723 -0.307617,0.22559 -0.184571,0.0684 -0.526367,0.0684 -0.05469,0 -0.191407,-0.0137 -0.136718,-0.0137 -0.293945,-0.0547 -0.157227,-0.041 -0.266602,-0.10937 -0.109375,-0.0684 -0.109375,-0.20508 z m 5.095098,4.58008 q 0,-0.95704 0.08887,-2.48829 0.08887,-1.53125 0.211914,-3.158199 0.123047,-1.626954 0.307618,-3.083008 0.18457,-1.456055 0.40332,-2.235352 0.08203,-0.341797 0.389648,-0.410156 0.307618,-0.06836 0.622071,-0.06836 0.423828,0 0.731445,0.15039 0.307617,0.150391 0.307617,0.65625 0,2.488281 -0.307617,4.983399 -0.307617,2.495116 -0.334961,4.983396 0.423828,-0.64257 1.09375,-0.96386 0.669922,-0.32129 1.421875,-0.32129 1.039063,0 1.791016,0.42383 0.751953,0.42382 1.216797,1.09375 0.464843,0.66992 0.690429,1.55175 0.225586,0.88184 0.225586,1.79785 0,0.50586 -0.102539,1.26465 -0.102539,0.75879 -0.307617,1.59961 -0.205078,0.84082 -0.519531,1.66797 -0.314453,0.82715 -0.745118,1.4834 -0.430664,0.65625 -0.99121,1.05957 -0.560547,0.40332 -1.230469,0.40332 -0.136719,0 -0.362305,-0.041 -0.225586,-0.041 -0.451172,-0.12304 -0.225586,-0.082 -0.375976,-0.21192 -0.150391,-0.12988 -0.150391,-0.32129 0,-0.21875 0.266602,-0.30761 0.266601,-0.0889 0.430664,-0.0889 0.615234,-0.27344 1.09375,-1.1416 0.478515,-0.86817 0.799804,-1.90723 0.321289,-1.03906 0.485352,-2.05762 0.164062,-1.01855 0.164062,-1.66113 0,-0.36914 -0.109375,-0.98437 -0.109375,-0.61524 -0.334961,-1.2168 -0.225585,-0.60156 -0.615234,-1.03906 -0.389648,-0.4375 -0.922851,-0.4375 -0.642579,0 -1.025391,0.66308 -0.382813,0.66309 -0.601563,1.54493 -0.21875,0.88183 -0.293945,1.81835 -0.07519,0.93653 -0.07519,1.46973 0,0.3418 0.116211,0.67676 0.116211,0.33496 0.266601,0.66992 0.150391,0.33496 0.266602,0.68359 0.116211,0.34864 0.116211,0.69043 0,0.16407 -0.143555,0.27344 -0.143555,0.10938 -0.334961,0.17774 -0.191406,0.0684 -0.40332,0.0889 -0.211914,0.0205 -0.321289,0.0205 -0.779297,0 -1.080078,-0.36914 -0.300782,-0.36914 -0.519532,-1.03906 -0.478515,-1.51758 -0.663086,-3.08301 -0.18457,-1.56543 -0.18457,-3.13769 z m 11.657598,0.15039 q 0,-0.56055 0.198242,-0.94336 0.198242,-0.38282 0.84082,-0.38282 0.246094,0 0.615235,0.0752 0.36914,0.0752 0.423828,0.37598 0.136719,0.80664 0.15039,1.75 0.01367,0.94336 0.0957,1.77734 0.314453,-0.61523 0.80664,-1.32617 0.492189,-0.71094 1.121099,-1.3125 0.62891,-0.60156 1.367185,-0.99805 0.738278,-0.39648 1.503896,-0.39648 0.0547,0 0.20508,0.041 0.15039,0.041 0.280268,0.11621 0.12989,0.0752 0.15723,0.1709 0.0273,0.0957 -0.15039,0.17774 -0.0547,0.16406 -0.232418,0.19824 -0.17774,0.0342 -0.31445,0.0342 -0.082,0 -0.25977,-0.0684 -1.011718,0.5332 -1.722656,1.44922 -0.710925,0.91601 -1.162105,2.03027 -0.45117,1.11426 -0.65625,2.35156 -0.205078,1.23731 -0.205078,2.41309 0,0.58789 -0.266602,0.71094 -0.266601,0.12304 -0.854492,0.12304 -0.314453,0 -0.663086,-0.0684 -0.348633,-0.0684 -0.485351,-0.4375 -0.246094,-0.77929 -0.403321,-1.79101 -0.157226,-1.01172 -0.239258,-2.08496 -0.08203,-1.07324 -0.116211,-2.11231 -0.03418,-1.03906 -0.03418,-1.87304 z m 9.716193,3.5 q 0,-1.25782 0.29394,-2.46778 0.29396,-1.20996 0.49904,-2.41308 0.0547,-0.31446 0.43066,-0.38965 0.37598,-0.0752 0.63574,-0.0752 0.45117,0 0.72461,0.13672 0.10938,0.0547 0.20508,0.12305 0.0957,0.0684 0.0957,0.17773 0,1.17578 -0.28027,2.29688 -0.28027,1.12109 -0.28027,2.3789 0,0.42383 0.0615,0.79981 0.0615,0.37598 0.11621,0.74512 l 0.082,0.39648 q 0,0.10938 0.0137,0.19141 0.0137,0.082 0.041,0.1914 0,0.2461 -0.34863,0.33496 -0.34864,0.0889 -0.6084,0.0889 -0.39649,0 -0.73145,-0.15723 -0.33496,-0.15722 -0.52636,-0.54003 l -0.19142,-0.39649 q -0.16406,-0.31445 -0.16406,-0.7041 0,-0.38965 -0.0684,-0.71777 z m 0.87501,-8.23047 v -0.25977 q 0,-0.642577 0.32129,-1.148436 0.32129,-0.50586 0.96386,-0.50586 0.082,0 0.15723,0.01367 0.0752,0.01367 0.15723,0.01367 0.16406,0.02734 0.43066,0.129883 0.2666,0.102539 0.2666,0.321289 v 0.02734 q -0.0547,0.109375 -0.0684,0.225586 -0.0137,0.116211 -0.0684,0.198242 l 0.0273,-0.02734 q -0.16407,0.423828 -0.2666,0.683596 -0.10254,0.25977 -0.22559,0.41699 -0.12305,0.15723 -0.30762,0.22559 -0.18457,0.0684 -0.52636,0.0684 -0.0547,0 -0.19141,-0.0137 -0.13672,-0.0137 -0.29395,-0.0547 -0.15722,-0.041 -0.2666,-0.10937 -0.10937,-0.0684 -0.10937,-0.20508 z"
     id="path1"
     style="fill:#89a" />
  <path
     fill="#"
     d=""
     id="path2"
     style="fill:#89a" />
</svg>
